<?xml version="1.0" encoding="UTF-8"?>
<svg id="_Слой_2" data-name="Слой 2" xmlns="http://www.w3.org/2000/svg" width="120.58" height="106.63" viewBox="0 0 120.58 106.63">
  <defs>
    <style>
      .cls-1 {
        fill: #fcbf31;
      }

      .cls-1, .cls-2, .cls-3, .cls-4, .cls-5, .cls-6 {
        stroke-width: 0px;
      }

      .cls-2 {
        fill: #7c9e4a;
      }

      .cls-3 {
        fill: #b1d664;
      }

      .cls-4 {
        fill: #ff8f8f;
      }

      .cls-5 {
        fill: #ea3d03;
      }

      .cls-6 {
        fill: #ca2301;
      }
    </style>
  </defs>
  <g id="Layer_1" data-name="Layer 1">
    <g>
      <path class="cls-5" d="m103.21,23.18c22.97,22.97,20.28,62.9,8.41,74.77-11.17,11.17-51.81,14.56-74.78-8.41-22.97-22.97-10.56-40.28,7.76-58.6C62.94,12.62,80.24.21,103.21,23.18Z"/>
      <path class="cls-6" d="m64.26,50.6c-12.37,12.37-26.8,18-32.22,12.57-5.43-5.43.2-19.85,12.57-32.22,12.37-12.37,26.8-18,32.23-12.58,5.43,5.43-.2,19.86-12.57,32.23Z"/>
      <path class="cls-6" d="m93.03,79.34c-8.87,8.87-29.72,16.15-49.91,15.51,23.45,17.01,58.31,13.31,68.52,3.1,10.8-10.8,13.99-44.81-2.8-68.16.65,19.81-6.47,40.21-15.81,49.55Z"/>
      <path class="cls-3" d="m32.33,18.67c5.08,1.61,10.65,2.41,16.46,2.26,4.86-5.83,8.6-12.9,10.64-20.92,2.71,6.46,4.29,13.8,4.42,21.62,5.37.93,10.86,1.49,16.45,1.66-6.4,8.8-14.24,15.72-22.67,20.68-4.96,8.43-11.88,16.27-20.68,22.67-.17-5.58-.73-11.07-1.66-16.44-7.82-.12-15.16-1.71-21.62-4.42,8.02-2.04,15.1-5.78,20.93-10.64.15-5.81-.65-11.38-2.26-16.46Z"/>
      <path class="cls-2" d="m54.63,40.97l.91-.54c6.12-3.6,11.72-8.18,16.59-13.59-3.03-.29-6.04-.7-9-1.21l-3.33-.58-.05-3.38c-.05-3-.32-5.94-.82-8.8-1.92,3.79-4.26,7.35-7.01,10.65l-1.19,1.42-1.85.05c-3.76.1-7.44-.17-11.02-.79.62,3.58.89,7.26.79,11.02l-.05,1.85-1.42,1.19c-3.31,2.75-6.87,5.09-10.66,7.02,2.86.49,5.8.77,8.8.81l3.38.05.58,3.33c.51,2.96.92,5.96,1.21,8.99,5.41-4.87,9.98-10.47,13.58-16.59l.54-.91Z"/>
      <path class="cls-4" d="m97.7,32.34c0,5.59-4.53,10.13-10.13,10.13-5.59,0-10.13-4.53-10.13-10.13s4.53-10.13,10.13-10.13c5.59,0,10.13,4.53,10.13,10.13Z"/>
      <g>
        <g>
          <path class="cls-6" d="m72.48,58.82l-1.41.1c-.44.03-2.7.13-3.96-1.13-3.1-3.1,1.23-7.44,4.34-4.34,1.26,1.26,1.16,3.52,1.13,3.96l-.1,1.41Z"/>
          <path class="cls-6" d="m90.59,76.93l-1.41.1c-.44.03-2.7.13-3.96-1.13-3.11-3.11,1.23-7.44,4.34-4.34,1.26,1.26,1.16,3.52,1.13,3.96l-.1,1.41Z"/>
          <path class="cls-6" d="m102.92,89.26l-1.41.11c-.44.03-2.7.12-3.96-1.13-3.1-3.1,1.24-7.44,4.34-4.34,1.26,1.26,1.16,3.52,1.13,3.96l-.1,1.41Z"/>
        </g>
        <g>
          <path class="cls-6" d="m55.22,70.91l-1.36-.4c-.42-.12-2.57-.83-3.3-2.46-.78-1.73-.15-3.6,1.42-4.31.79-.36,1.65-.37,2.43-.03.75.33,1.36.96,1.74,1.82.74,1.62-.15,3.7-.34,4.1l-.59,1.28Z"/>
          <path class="cls-6" d="m53.87,86.89h-1.41c-.44-.01-2.7-.1-3.85-1.46-1.19-1.39-1.19-3.18-.02-4.36l.19-.18c.67-.56,1.49-.81,2.33-.7.82.11,1.57.54,2.18,1.26,1.15,1.36.87,3.6.81,4.03l-.22,1.4Z"/>
          <path class="cls-6" d="m87.93,104.92l-1.3.53c-.41.17-2.53.95-4.12.14-1.95-1-2.27-2.9-1.58-4.25.79-1.56,2.68-2.08,4.37-1.21,1.59.81,2.18,2.99,2.29,3.42l.33,1.37Z"/>
          <path class="cls-6" d="m65.77,98.91l-1.35.4c-.42.13-2.61.71-4.11-.25-1.85-1.18-1.99-3.1-1.17-4.39.95-1.49,2.86-1.82,4.47-.78,1.5.96,1.89,3.19,1.96,3.62l.2,1.4Z"/>
          <path class="cls-6" d="m82.12,93.08l-1.4.16c-.44.05-2.69.24-4-.97-1.61-1.49-1.41-3.4-.38-4.52t0,0c1.31-1.32,3.14-1.27,4.54.02,1.3,1.2,1.3,3.46,1.29,3.9l-.05,1.41Z"/>
          <path class="cls-6" d="m71.9,80.35h-1.41c-.44-.02-2.7-.1-3.85-1.46-1.18-1.39-1.19-3.19-.02-4.36l.19-.17c.66-.56,1.48-.81,2.32-.7.81.1,1.57.54,2.18,1.26,1.15,1.35.88,3.6.81,4.03l-.21,1.39Z"/>
          <path class="cls-6" d="m103.1,102.35l-1.39.23c-.43.07-2.68.36-4.04-.78-1.68-1.41-1.57-3.33-.59-4.5l.19-.21c1.17-1.17,2.96-1.16,4.35,0,1.37,1.14,1.47,3.4,1.47,3.84l.02,1.41Z"/>
          <path class="cls-6" d="m36.92,77.78l-1.25-.65c-.39-.2-2.36-1.31-2.77-3.05-.43-1.85.56-3.56,2.23-3.95.79-.18,1.59-.06,2.26.35.52.32,1.19.96,1.48,2.2.41,1.73-.87,3.6-1.13,3.96l-.83,1.14Z"/>
        </g>
        <g>
          <path class="cls-6" d="m84.57,41.56l-1.28.59c-.4.19-2.48,1.07-4.1.34-.86-.39-1.49-.99-1.82-1.74-.33-.77-.33-1.63.03-2.43.72-1.57,2.58-2.2,4.31-1.42,1.62.73,2.33,2.88,2.46,3.3l.4,1.35Z"/>
          <path class="cls-6" d="m100.55,40.2l-1.4.21c-.44.07-2.68.35-4.04-.81-.72-.61-1.16-1.36-1.26-2.18-.11-.84.14-1.66.7-2.32l.17-.19c1.18-1.17,2.97-1.17,4.36.02,1.36,1.15,1.44,3.41,1.45,3.85v1.41Z"/>
          <path class="cls-6" d="m118.58,74.27l-1.37-.33c-.43-.1-2.61-.71-3.42-2.3-.87-1.7-.34-3.58,1.21-4.37,1.36-.69,3.26-.38,4.26,1.57.81,1.59.02,3.71-.14,4.12l-.53,1.31Z"/>
          <path class="cls-6" d="m112.57,52.11l-1.4-.2c-.43-.06-2.66-.46-3.62-1.96-1.03-1.61-.69-3.53.78-4.46,1.29-.82,3.2-.69,4.39,1.16.96,1.5.38,3.69.25,4.11l-.4,1.35Z"/>
          <path class="cls-6" d="m106.74,68.46l-1.41.05c-.44.01-2.7.02-3.91-1.29-1.29-1.39-1.33-3.22-.11-4.45,1.21-1.12,3.12-1.32,4.62.29,1.21,1.31,1.02,3.56.97,4l-.16,1.4Z"/>
          <path class="cls-6" d="m94.01,58.24l-1.39.21c-.44.07-2.68.34-4.04-.81-.71-.61-1.15-1.37-1.26-2.18-.11-.84.14-1.66.7-2.33l.18-.19c1.17-1.17,2.97-1.17,4.36.01,1.36,1.15,1.44,3.41,1.45,3.86v1.41Z"/>
          <path class="cls-6" d="m116.01,89.44l-1.41-.02c-.44,0-2.7-.11-3.84-1.47-1.17-1.39-1.17-3.18,0-4.34l.2-.18c1.17-.98,3.09-1.09,4.5.59,1.14,1.36.85,3.61.78,4.04l-.23,1.39Z"/>
          <path class="cls-6" d="m91.45,23.26l-1.14.83c-.36.26-2.23,1.53-3.96,1.13-1.24-.29-1.88-.97-2.2-1.48-.41-.67-.54-1.47-.36-2.26.39-1.66,2.11-2.66,3.95-2.22,1.74.41,2.84,2.38,3.05,2.77l.65,1.25Z"/>
        </g>
      </g>
      <g>
        <g>
          <path class="cls-1" d="m70.3,54.61c.79.79.66,2.68.66,2.68,0,0-1.89.14-2.68-.66-.8-.8-.75-1.66-.2-2.22.56-.56,1.43-.6,2.22.2Z"/>
          <path class="cls-1" d="m88.41,72.72c.8.8.66,2.68.66,2.68,0,0-1.89.14-2.68-.65-.8-.8-.76-1.66-.2-2.22s1.42-.6,2.22.2Z"/>
          <path class="cls-1" d="m100.74,85.05c.79.79.65,2.68.65,2.68,0,0-1.89.14-2.68-.66-.8-.8-.75-1.66-.2-2.22.56-.56,1.43-.6,2.22.2Z"/>
        </g>
        <g>
          <path class="cls-1" d="m54.66,66.2c.46,1.02-.33,2.74-.33,2.74,0,0-1.82-.54-2.28-1.56-.46-1.02-.12-1.82.6-2.15.72-.32,1.55-.06,2.01.97Z"/>
          <path class="cls-1" d="m52.03,82.52c.73.86.44,2.73.44,2.73,0,0-1.89-.02-2.62-.87-.73-.86-.62-1.72-.02-2.23.61-.51,1.47-.48,2.2.38Z"/>
          <path class="cls-1" d="m84.56,101.59c1,.51,1.45,2.35,1.45,2.35,0,0-1.75.71-2.76.2-1-.51-1.23-1.35-.87-2.06.36-.7,1.17-1.01,2.17-.5Z"/>
          <path class="cls-1" d="m62.73,95.26c.95.61,1.22,2.48,1.22,2.48,0,0-1.82.54-2.76-.06-.95-.61-1.1-1.46-.67-2.13.42-.67,1.26-.89,2.21-.29Z"/>
          <path class="cls-1" d="m79.77,88.96c.82.76.76,2.66.76,2.66,0,0-1.88.21-2.71-.55-.83-.76-.82-1.63-.28-2.21.54-.58,1.4-.66,2.23.11Z"/>
          <path class="cls-1" d="m70.07,75.98c.73.86.44,2.73.44,2.73,0,0-1.9-.01-2.62-.87-.73-.86-.62-1.72-.01-2.23.6-.51,1.47-.48,2.2.37Z"/>
          <path class="cls-1" d="m100.56,98.34c.86.72.89,2.62.89,2.62,0,0-1.87.3-2.73-.42-.87-.72-.9-1.59-.39-2.2.51-.61,1.37-.72,2.23,0Z"/>
          <path class="cls-1" d="m37.28,73.06c.26,1.09-.86,2.62-.86,2.62,0,0-1.68-.88-1.93-1.97-.26-1.1.23-1.81,1.01-1.99.77-.18,1.53.24,1.79,1.34Z"/>
        </g>
        <g>
          <path class="cls-1" d="m79.86,41c1.02.46,2.74-.33,2.74-.33,0,0-.54-1.82-1.56-2.28-1.02-.46-1.82-.12-2.15.6-.33.72-.06,1.55.97,2.01Z"/>
          <path class="cls-1" d="m96.18,38.37c.86.73,2.73.44,2.73.44,0,0-.02-1.9-.87-2.62-.86-.73-1.72-.62-2.23-.01-.51.6-.48,1.47.37,2.2Z"/>
          <path class="cls-1" d="m115.25,70.9c.51,1,2.35,1.45,2.35,1.45,0,0,.71-1.76.2-2.75-.51-1-1.35-1.23-2.05-.87-.71.36-1.01,1.17-.5,2.17Z"/>
          <path class="cls-1" d="m108.93,49.07c.61.95,2.48,1.22,2.48,1.22,0,0,.54-1.82-.06-2.76-.6-.95-1.46-1.09-2.13-.67-.67.43-.89,1.27-.29,2.21Z"/>
          <path class="cls-1" d="m102.62,66.11c.76.83,2.65.77,2.65.77,0,0,.21-1.89-.54-2.71-.77-.83-1.63-.82-2.21-.29-.58.54-.66,1.41.11,2.23Z"/>
          <path class="cls-1" d="m89.64,56.41c.86.73,2.73.44,2.73.44,0,0-.01-1.89-.87-2.62-.86-.73-1.72-.62-2.23-.01-.51.6-.48,1.47.37,2.2Z"/>
          <path class="cls-1" d="m112,86.9c.72.86,2.62.89,2.62.89,0,0,.3-1.87-.42-2.73-.73-.86-1.59-.9-2.2-.39-.6.51-.72,1.37,0,2.23Z"/>
          <path class="cls-1" d="m86.72,23.62c1.09.26,2.62-.86,2.62-.86,0,0-.88-1.68-1.97-1.93-1.09-.26-1.81.23-1.99,1.01-.18.77.24,1.53,1.34,1.78Z"/>
        </g>
      </g>
      <path class="cls-2" d="m56.3,34.02l-6.27,6.27-1.3-.28c-7.48-1.62-28.29-4.41-34.7,1.99-1.78,1.78-2.27,4.26-1.49,7.58.44,1.02.57,2.87-1.93,5.37-.47.47-.99.92-1.56,1.34-3.41,2.56-6.44,2.93-7.91.97-.28-.38-.59-.98-.59-1.83-1.47-8.3.07-14.78,4.57-19.28,12.92-12.93,45.8-3.68,47.19-3.28l4,1.15Z"/>
      <path class="cls-3" d="m3.11,54.86c.35-.19.74-.42,1.16-.71.9-.64,1.66-1.45,1.94-1.88-2.6-8.14-.29-12.74,2.14-15.17.83-.84,1.81-1.55,2.9-2.15-2.07.79-3.87,1.87-5.3,3.3-3.51,3.51-4.46,9.09-2.84,16.61Z"/>
    </g>
  </g>
</svg>