<?xml version="1.0" encoding="UTF-8"?>
<svg id="_Слой_2" data-name="Слой 2" xmlns="http://www.w3.org/2000/svg" width="102.33" height="106.63" viewBox="0 0 102.33 106.63">
  <defs>
    <style>
      .cls-1 {
        fill: #3f3f3f;
      }

      .cls-1, .cls-2, .cls-3, .cls-4, .cls-5, .cls-6 {
        stroke-width: 0px;
      }

      .cls-2 {
        fill: #4e6b33;
      }

      .cls-3 {
        fill: #f36362;
      }

      .cls-4 {
        fill: #7c9e4a;
      }

      .cls-5 {
        fill: #b1d664;
      }

      .cls-6 {
        fill: #fff;
      }
    </style>
  </defs>
  <g id="Layer_1" data-name="Layer 1">
    <g>
      <path class="cls-4" d="m0,53.31c0,29.44,36.76,53.31,82.11,53.31V0C36.76,0,0,23.87,0,53.31Z"/>
      <path class="cls-2" d="m0,53.31c0,23.56,36.76,42.65,82.11,42.65V10.66C36.76,10.66,0,29.76,0,53.31Z"/>
      <path class="cls-4" d="m0,53.31c0,16.01,36.76,28.98,82.11,28.98V24.33C36.76,24.33,0,37.31,0,53.31Z"/>
      <path class="cls-2" d="m0,53.31c0,5.46,36.76,9.88,82.11,9.88v-19.77C36.76,43.43,0,47.86,0,53.31Z"/>
      <path class="cls-5" d="m102.33,53.31c0,29.44-9.21,53.31-20.56,53.31s-20.56-23.87-20.56-53.31S70.4,0,81.76,0s20.56,23.87,20.56,53.31Z"/>
      <ellipse class="cls-6" cx="81.76" cy="53.31" rx="17.05" ry="47.98"/>
      <path class="cls-3" d="m95.31,53.31c0,23.55-6.07,42.65-13.55,42.65s-13.55-19.09-13.55-42.65,6.07-42.65,13.55-42.65,13.55,19.1,13.55,42.65Z"/>
      <path class="cls-1" d="m82.91,19.45c0,1.4-.51,2.54-1.15,2.54s-1.14-1.14-1.14-2.54.51-2.54,1.14-2.54,1.15,1.14,1.15,2.54Z"/>
      <path class="cls-1" d="m82.91,87.18c0,1.4-.51,2.54-1.15,2.54s-1.14-1.14-1.14-2.54.51-2.54,1.14-2.54,1.15,1.14,1.15,2.54Z"/>
      <path class="cls-1" d="m90.47,34.77c-.99.99-2.16,1.44-2.61.99s0-1.61.99-2.61c.99-.99,2.16-1.43,2.61-.99.45.45,0,1.61-.99,2.61Z"/>
      <path class="cls-1" d="m74.97,73.05c-.99.99-2.16,1.44-2.61.99-.45-.45,0-1.61.99-2.61.99-.99,2.16-1.44,2.61-.99.45.45,0,1.61-.99,2.61Z"/>
      <path class="cls-1" d="m73.35,34.77c.99.99,2.16,1.44,2.61.99.45-.45,0-1.61-.99-2.61-.99-.99-2.16-1.43-2.61-.99-.45.45,0,1.61.99,2.61Z"/>
      <path class="cls-1" d="m88.85,73.05c.99.99,2.16,1.44,2.61.99s0-1.61-.99-2.61-2.16-1.44-2.61-.99c-.45.45,0,1.61.99,2.61Z"/>
      <path class="cls-1" d="m91.63,54.46c-1.4,0-2.54-.51-2.54-1.15s1.14-1.14,2.54-1.14,2.54.51,2.54,1.14-1.14,1.15-2.54,1.15Z"/>
      <path class="cls-1" d="m72.89,54.46c-1.4,0-2.54-.51-2.54-1.15s1.14-1.14,2.54-1.14,2.54.51,2.54,1.14-1.14,1.15-2.54,1.15Z"/>
    </g>
  </g>
</svg>