<?xml version="1.0" encoding="UTF-8"?>
<svg id="_Слой_2" data-name="Слой 2" xmlns="http://www.w3.org/2000/svg" width="142.46" height="106.63" viewBox="0 0 142.46 106.63">
  <defs>
    <style>
      .cls-1 {
        fill: #fce466;
      }

      .cls-1, .cls-2, .cls-3 {
        stroke-width: 0px;
      }

      .cls-2 {
        fill: #fed51b;
      }

      .cls-3 {
        fill: #fffde8;
      }
    </style>
  </defs>
  <g id="Layer_1" data-name="Layer 1">
    <g>
      <g>
        <path class="cls-1" d="m134.88,53.31c0,29.45-28.99,53.31-64.76,53.31S5.37,82.76,5.37,53.31,34.36,0,70.12,0s64.76,23.87,64.76,53.31Z"/>
        <path class="cls-3" d="m62.79,30.35c0,8.83-7.16,16-15.99,16s-15.99-7.16-15.99-16,7.16-15.99,15.99-15.99,15.99,7.16,15.99,15.99Z"/>
        <path class="cls-1" d="m12.4,53.31c0,3.42-2.78,6.2-6.2,6.2s-6.2-2.78-6.2-6.2,2.77-6.2,6.2-6.2,6.2,2.77,6.2,6.2Z"/>
        <path class="cls-1" d="m142.46,53.31c0,6.04-4.9,10.94-10.94,10.94s-10.94-4.9-10.94-10.94,4.9-10.94,10.94-10.94,10.94,4.9,10.94,10.94Z"/>
      </g>
      <path class="cls-2" d="m133.5,64.26c-50.9,38.36-104.75,18.45-123.11,9.65,9.79,19.21,32.84,32.71,59.74,32.71,31.2,0,57.24-18.17,63.38-42.37Z"/>
      <path class="cls-2" d="m45.3,67.03c-.79,1.2-2.41,1.54-3.61.75-1.2-.79-1.54-2.41-.75-3.61.79-1.2,2.41-1.54,3.61-.75,1.21.79,1.54,2.41.75,3.61Z"/>
      <path class="cls-2" d="m28.4,81.31c-.4.6-1.2.77-1.81.37-.6-.4-.77-1.2-.37-1.81.4-.6,1.21-.77,1.81-.37.6.4.77,1.21.38,1.81Z"/>
      <path class="cls-2" d="m32.93,82.91c-.4.6-1.2.77-1.81.37-.6-.4-.77-1.2-.37-1.81.4-.6,1.21-.77,1.81-.37.6.4.77,1.21.38,1.81Z"/>
      <path class="cls-2" d="m38.76,84.8c-.39.6-1.2.77-1.81.37-.6-.4-.77-1.2-.37-1.81.39-.6,1.2-.77,1.8-.37.6.4.77,1.2.37,1.81Z"/>
      <path class="cls-2" d="m54.9,87.53c-.39.6-1.2.77-1.81.37-.6-.4-.77-1.2-.37-1.8.4-.6,1.2-.77,1.81-.38.6.4.77,1.2.37,1.81Z"/>
      <path class="cls-2" d="m72.38,87.05c-.4.6-1.2.77-1.81.37-.6-.39-.77-1.2-.37-1.8.4-.6,1.2-.77,1.8-.37.6.39.77,1.2.37,1.81Z"/>
      <path class="cls-2" d="m64.11,87.46c-.39.6-1.2.77-1.8.37-.6-.4-.77-1.2-.37-1.8.4-.6,1.2-.77,1.8-.37.6.4.77,1.2.37,1.81Z"/>
      <path class="cls-2" d="m85.76,86.16c-.4.6-1.2.77-1.8.37-.6-.39-.77-1.2-.38-1.81.4-.6,1.21-.77,1.81-.37.6.4.77,1.21.37,1.81Z"/>
      <path class="cls-2" d="m97.68,82.91c-.4.6-1.2.77-1.8.37-.6-.39-.77-1.2-.38-1.81.4-.6,1.2-.77,1.81-.37.6.4.77,1.2.37,1.8Z"/>
      <path class="cls-2" d="m91.12,85.18c-.4.6-1.2.77-1.8.37-.6-.4-.77-1.2-.38-1.81.4-.6,1.2-.77,1.81-.37.6.4.77,1.21.37,1.81Z"/>
      <path class="cls-2" d="m116.87,75.65c-.39.6-1.2.77-1.81.37-.6-.39-.77-1.2-.37-1.8.39-.6,1.2-.77,1.8-.37.6.4.77,1.2.37,1.8Z"/>
      <path class="cls-2" d="m123.65,71.58c-.39.6-1.2.77-1.81.37-.6-.4-.77-1.2-.37-1.8.4-.6,1.2-.77,1.81-.37.6.39.77,1.2.37,1.8Z"/>
      <path class="cls-2" d="m129.38,67.66c-.4.6-1.2.77-1.8.37-.6-.4-.77-1.2-.38-1.81.4-.6,1.21-.77,1.8-.37.6.4.77,1.2.38,1.8Z"/>
      <path class="cls-2" d="m111.89,58.13c-.39.6-1.2.77-1.8.37-.6-.39-.77-1.2-.37-1.8.39-.6,1.2-.77,1.8-.37.6.4.77,1.2.37,1.81Z"/>
      <path class="cls-2" d="m92.08,57.06c-.4.6-1.2.77-1.81.37-.6-.4-.77-1.2-.37-1.8.39-.6,1.2-.77,1.8-.38.6.4.77,1.21.37,1.81Z"/>
      <path class="cls-2" d="m79.45,18.65c-.26.4-.79.51-1.19.25-.4-.26-.51-.8-.25-1.19.26-.4.79-.51,1.19-.25.4.26.51.8.25,1.19Z"/>
      <path class="cls-2" d="m68.09,10.59c-.26.4-.79.51-1.19.25-.4-.26-.51-.79-.25-1.19.26-.4.79-.51,1.19-.25.4.26.51.8.25,1.19Z"/>
      <path class="cls-2" d="m114.34,41.56c-.26.4-.8.51-1.19.25-.4-.26-.51-.79-.25-1.19.26-.4.8-.51,1.19-.25.4.26.51.8.25,1.19Z"/>
      <path class="cls-2" d="m88.94,43.06c-.26.4-.79.51-1.19.25-.4-.26-.51-.79-.25-1.19.26-.4.79-.51,1.19-.25.4.26.51.8.25,1.19Z"/>
      <path class="cls-1" d="m67.96,99.93c-.26.4-.79.51-1.19.25-.4-.26-.51-.8-.25-1.19.26-.4.79-.51,1.19-.25.4.26.51.79.25,1.19Z"/>
      <path class="cls-2" d="m57.43,49.94c-.26.4-.8.51-1.19.25-.4-.26-.51-.8-.25-1.19.26-.4.79-.51,1.19-.25.4.26.51.79.25,1.19Z"/>
      <path class="cls-2" d="m108.85,19.88c-.26.4-.8.51-1.19.25-.4-.26-.51-.8-.25-1.19.26-.4.79-.51,1.19-.25.4.26.51.79.25,1.19Z"/>
      <path class="cls-2" d="m22.91,79.21c-.26.4-.79.51-1.19.25-.4-.26-.51-.79-.25-1.19.26-.4.79-.51,1.19-.25.4.26.51.8.25,1.19Z"/>
      <path class="cls-1" d="m57.81,92.86c-.26.4-.8.51-1.19.25-.4-.26-.51-.79-.25-1.19.26-.4.79-.51,1.19-.25.4.26.51.8.25,1.19Z"/>
      <path class="cls-2" d="m18.46,44.29c-.26.4-.79.51-1.19.25-.4-.26-.51-.79-.25-1.19.26-.4.79-.51,1.19-.25.4.26.51.8.25,1.19Z"/>
      <path class="cls-1" d="m96.08,88.18c-.26.4-.79.51-1.19.25-.4-.26-.51-.8-.25-1.19.26-.4.79-.51,1.19-.25.4.26.51.8.25,1.19Z"/>
      <path class="cls-2" d="m127.14,34.7c-.26.4-.79.51-1.19.25-.4-.26-.51-.79-.25-1.19.26-.4.8-.51,1.19-.25.4.26.51.8.25,1.19Z"/>
      <path class="cls-2" d="m14.01,59.99c-.26.4-.79.51-1.19.25-.4-.26-.51-.79-.25-1.19.26-.4.8-.51,1.19-.25.4.26.51.8.25,1.19Z"/>
      <path class="cls-2" d="m14.01,75.02c-.26.4-.79.51-1.19.25-.4-.26-.51-.79-.25-1.19.26-.4.8-.51,1.19-.25.4.26.51.8.25,1.19Z"/>
      <path class="cls-2" d="m18.46,77.98c-.26.4-.79.51-1.19.25-.4-.26-.51-.79-.25-1.19.26-.4.8-.51,1.19-.25.4.26.51.8.25,1.19Z"/>
      <path class="cls-2" d="m89.22,71.58c-.4.6-1.2.77-1.81.37-.6-.4-.77-1.21-.37-1.81.39-.6,1.2-.77,1.8-.37.6.4.77,1.2.38,1.8Z"/>
      <path class="cls-2" d="m71.4,55.42c-.39.6-1.2.77-1.8.37-.6-.4-.77-1.21-.37-1.81.39-.6,1.2-.77,1.81-.38.6.4.77,1.2.37,1.81Z"/>
      <path class="cls-2" d="m28.4,22.82c-.4.6-1.2.77-1.81.37-.6-.39-.77-1.2-.37-1.81.4-.6,1.2-.77,1.8-.37.6.4.77,1.2.38,1.8Z"/>
      <path class="cls-1" d="m38.29,92.26c-.4.6-1.2.77-1.81.37-.6-.39-.77-1.2-.37-1.8.39-.6,1.21-.77,1.81-.37.6.39.77,1.2.37,1.8Z"/>
      <path class="cls-2" d="m92.32,24.68c-.4.6-1.2.77-1.8.37-.6-.4-.77-1.2-.37-1.8.4-.6,1.2-.77,1.81-.37.6.4.77,1.2.37,1.81Z"/>
      <path class="cls-1" d="m80.7,94.73c-.39.6-1.2.77-1.8.37-.6-.4-.77-1.2-.37-1.8.4-.6,1.2-.77,1.81-.38.6.4.77,1.2.37,1.81Z"/>
      <path class="cls-1" d="m102.85,94.13c-.4.6-1.21.77-1.81.37-.6-.39-.77-1.2-.37-1.81.4-.6,1.21-.77,1.81-.37.6.4.77,1.21.38,1.81Z"/>
      <path class="cls-2" d="m111.89,78.22c-.4.6-1.2.77-1.81.37-.6-.4-.77-1.21-.38-1.81.4-.6,1.21-.77,1.81-.38.6.4.77,1.21.37,1.81Z"/>
      <path class="cls-2" d="m31.06,57.68c-.39.6-1.2.77-1.8.37-.6-.39-.77-1.2-.37-1.81s1.2-.77,1.81-.37c.6.4.77,1.2.37,1.81Z"/>
      <path class="cls-2" d="m64.62,75.26c-.4.6-1.2.77-1.81.37-.6-.4-.77-1.2-.37-1.8.4-.6,1.2-.77,1.8-.37.6.39.77,1.2.37,1.8Z"/>
      <path class="cls-2" d="m48.1,86.48c-.79,1.21-2.41,1.54-3.61.75-1.2-.79-1.54-2.4-.75-3.61.79-1.2,2.41-1.54,3.61-.75,1.2.79,1.54,2.41.75,3.61Z"/>
      <path class="cls-2" d="m80.79,87.35c-.79,1.2-2.41,1.54-3.61.75-1.2-.79-1.54-2.41-.75-3.61s2.41-1.54,3.61-.75c1.2.79,1.54,2.41.75,3.61Z"/>
      <path class="cls-2" d="m106.15,80.04c-.79,1.2-2.41,1.54-3.61.75-1.2-.79-1.54-2.41-.75-3.61.79-1.2,2.41-1.54,3.61-.75,1.2.79,1.54,2.41.75,3.61Z"/>
    </g>
  </g>
</svg>